<svg width="91" height="91" viewBox="0 0 91 91" fill="none" xmlns="http://www.w3.org/2000/svg">
<g clip-path="url(#clip0_1_174)">
<path d="M84.652 85.0026H28.2172V76.5374H22.5737V87.8243C22.5737 88.5727 22.871 89.2904 23.4002 89.8196C23.9294 90.3488 24.6471 90.646 25.3955 90.646H87.4737C88.2221 90.646 88.9398 90.3488 89.469 89.8196C89.9982 89.2904 90.2955 88.5727 90.2955 87.8243V25.7461C90.2955 24.9977 89.9982 24.28 89.469 23.7508C88.9398 23.2216 88.2221 22.9243 87.4737 22.9243H76.1868V28.5678H84.652V85.0026Z" fill="black"/>
<path d="M33.8609 68.0721C40.5579 68.0721 47.1046 66.0862 52.673 62.3655C58.2414 58.6448 62.5814 53.3565 65.1442 47.1692C67.7071 40.982 68.3776 34.1737 67.0711 27.6053C65.7646 21.0369 62.5396 15.0035 57.8041 10.268C53.0686 5.53245 47.0352 2.30751 40.4668 1.00098C33.8984 -0.305545 27.0901 0.365013 20.9029 2.92786C14.7156 5.49071 9.42727 9.83074 5.70659 15.3991C1.98591 20.9675 0 27.5142 0 34.2112C0 43.1917 3.56748 51.8043 9.91762 58.1545C16.2678 64.5046 24.8804 68.0721 33.8609 68.0721ZM33.8609 5.99384C39.4417 5.99384 44.8973 7.64875 49.5376 10.7493C54.1779 13.8499 57.7946 18.2568 59.9303 23.4129C62.066 28.569 62.6248 34.2425 61.5361 39.7162C60.4473 45.1898 57.7598 50.2177 53.8136 54.1639C49.8673 58.1102 44.8394 60.7976 39.3658 61.8864C33.8922 62.9752 28.2186 62.4164 23.0625 60.2807C17.9065 58.145 13.4995 54.5283 10.399 49.888C7.2984 45.2476 5.64348 39.7921 5.64348 34.2112C5.64348 26.7275 8.61638 19.5503 13.9082 14.2585C19.1999 8.96673 26.3772 5.99384 33.8609 5.99384Z" fill="black"/>
</g>
<defs>
<clipPath id="clip0_1_174">
<rect width="90.2956" height="90.2956" fill="white" transform="translate(0 0.350342)"/>
</clipPath>
</defs>
</svg>
